<?xml version="1.0" encoding="UTF-8"?>
<svg width="60px" height="60px" viewBox="0 0 60 60" version="1.1" xmlns="http://www.w3.org/2000/svg" xmlns:xlink="http://www.w3.org/1999/xlink">
    <!-- Generator: Sketch 52.6 (67491) - http://www.bohemiancoding.com/sketch -->
    <title>002-comment</title>
    <desc>Created with Sketch.</desc>
    <g id="Page-1" stroke="none" stroke-width="1" fill="none" fill-rule="evenodd">
        <g id="002-comment" transform="translate(30.000000, 30.000000) rotate(-360.000000) translate(-30.000000, -30.000000) translate(-0.500000, 0.000000)" fill="#FFFFFF" fill-rule="nonzero">
            <path d="M27.0002166,24 C25.070138,24 23.5,25.5702351 23.5,27.5 C23.5,29.430198 25.070138,31 27.0002166,31 C28.929862,31 30.5,29.430198 30.5,27.5 C30.5,25.5702351 28.929862,24 27.0002166,24 Z M27.0002166,29.3336015 C25.9892643,29.3336015 25.1667286,28.5110148 25.1667286,27.5 C25.1667286,26.4889852 25.9892643,25.6663985 27.0002166,25.6663985 C28.0107357,25.6663985 28.8332714,26.4889852 28.8332714,27.5 C28.8332714,28.5110148 28.0107357,29.3336015 27.0002166,29.3336015 Z" id="Shape"></path>
            <path d="M38.0002166,24 C36.070138,24 34.5,25.5702351 34.5,27.5 C34.5,29.430198 36.070138,31 38.0002166,31 C39.929862,31 41.5,29.430198 41.5,27.5 C41.5,25.5702351 39.929862,24 38.0002166,24 Z M38.0002166,29.3336015 C36.9892642,29.3336015 36.1667286,28.5110148 36.1667286,27.5 C36.1667286,26.4889852 36.9892642,25.6663985 38.0002166,25.6663985 C39.0107357,25.6663985 39.8332714,26.4889852 39.8332714,27.5 C39.8332714,28.5110148 39.0107357,29.3336015 38.0002166,29.3336015 Z" id="Shape"></path>
            <path d="M14.9997834,24 C13.0701381,24 11.5,25.5702351 11.5,27.5 C11.5,29.430198 13.0701381,31 14.9997834,31 C16.9298619,31 18.5,29.430198 18.5,27.5 C18.5,25.5702351 16.9298619,24 14.9997834,24 Z M14.9997834,29.3336015 C13.9892643,29.3336015 13.1667285,28.5110148 13.1667285,27.5 C13.1667285,26.4889852 13.9892643,25.6663985 14.9997834,25.6663985 C16.0107357,25.6663985 16.8332715,26.4889852 16.8332715,27.5 C16.8332715,28.5110148 16.0107357,29.3336015 14.9997834,29.3336015 Z" id="Shape"></path>
            <path d="M57.4123564,0.909869783 C56.2166783,0.111294145 54.7925762,-0.169149714 53.2934008,0.098421427 C51.8651789,0.35357933 50.3820253,1.09376743 48.8764413,2.301975 C47.3703996,1.09376743 45.8872461,0.35357933 44.4594818,0.098421427 C42.9598488,-0.169149714 41.5357467,0.111294145 40.3405263,0.909869783 C38.9063534,1.86751683 37.9107179,3.52443455 37.4854557,5.40111014 L5.138517,5.40111014 C2.58099258,5.40111014 0.5,7.491107 0.5,10.0596974 L0.5,43.0812792 C0.5,45.6498696 2.58099258,47.7394067 5.138517,47.7394067 L5.19711073,47.7394067 L5.19711073,47.7987136 C5.19711073,50.3562702 7.26025062,52.4393709 9.80312661,52.4568411 L10.8335522,52.5290209 L10.8335522,54.402938 C10.8335522,55.1279546 11.6973517,55.5490801 12.2645207,55.0934737 L15.4386524,52.543273 C15.4688648,52.545112 15.499535,52.5460315 15.5306629,52.545112 L15.5306629,59.1203725 C15.5306629,59.8449292 16.3944624,60.2665147 16.9611736,59.8109082 L26.1141538,52.4568411 L53.0480396,52.4568411 C55.605564,52.4568411 57.6865567,50.3673041 57.6865567,47.7987136 L57.6865567,30.3445278 C57.6865567,29.8558198 57.2924223,29.4599801 56.8058197,29.4599801 C56.319675,29.4599801 55.925083,29.8558198 55.925083,30.3445278 L55.925083,47.7987136 C55.925083,49.391727 54.6346478,50.6882054 53.0480396,50.6882054 L25.8051635,50.6882054 C25.6055786,50.6882054 25.4114869,50.7562476 25.2553896,50.8817577 L17.2921366,57.2800168 L17.2921366,51.5722934 C17.2921366,51.4205779 17.2527689,51.2734598 17.1809001,51.1433522 L21.4170431,47.7394067 L48.3513866,47.7394067 C50.9089111,47.7394067 52.9894459,45.6498696 52.9894459,43.0812792 L52.9894459,18.1516537 C53.9315231,17.5273213 54.9514201,16.7816163 55.925083,15.9320092 L55.925083,26.2164853 C55.925083,26.7051933 56.319675,27.101033 56.8058197,27.101033 C57.2924223,27.101033 57.6865567,26.7051933 57.6865567,26.2164853 L57.6865567,14.7771319 C57.6865567,14.6562192 57.6819791,14.534387 57.6728238,14.4148535 C57.6682462,14.3573855 57.6581754,14.3017565 57.6435269,14.2479664 C58.700045,13.0696422 59.5748309,11.7556934 60.044954,10.3392218 C61.2140818,6.81850132 60.0573136,2.67620666 57.4123564,0.909869783 Z M9.89651036,50.6900444 C9.87636876,50.6886653 9.85576944,50.6882054 9.83517,50.6882054 C8.24901967,50.6882054 6.95858448,49.391727 6.95858448,47.7987136 L6.95858448,47.7398664 L10.8335522,47.7398664 L10.8335522,50.7557879 L9.89651036,50.6900444 Z M51.2279721,43.0812792 C51.2279721,44.6742925 49.9375371,45.970771 48.3513866,45.970771 L21.1085105,45.970771 C20.9084679,45.970771 20.7143762,46.0392728 20.5582788,46.1643232 L12.5950259,52.5625822 L12.5950259,46.854859 C12.5950259,46.3666106 12.2004338,45.9703113 11.7142889,45.9703113 L5.138517,45.9703113 C3.55190895,45.9703113 2.26147375,44.6742925 2.26147375,43.0812792 L2.26147375,10.0596974 C2.26147375,8.46622427 3.55190895,7.17020554 5.138517,7.17020554 L37.2588627,7.17020554 C37.2245304,8.22991573 37.3659794,9.3107742 37.7070132,10.3392218 C39.6099358,16.0717714 48.141731,20.1262548 48.5038218,20.2959003 C48.737739,20.4057792 49.014686,20.4057792 49.248603,20.2959003 C49.3525153,20.2471675 50.1293399,19.8784528 51.2279721,19.2426266 L51.2279721,43.0812792 Z M58.3741174,9.77971321 C56.9170563,14.1698099 50.4969239,17.6808757 48.8759836,18.5079555 C47.2541277,17.6817953 40.8376574,14.1771658 39.3783076,9.77971321 C38.4636961,7.02538611 39.3329889,3.70695306 41.3155625,2.38288997 C41.9312543,1.97141895 42.6197305,1.7682121 43.3640539,1.7682121 C44.8353056,1.7682121 46.5239949,2.56356938 48.2959973,4.12118249 C48.6283335,4.41266032 49.1240913,4.41266032 49.4559698,4.12118249 C52.1247308,1.77602772 54.6035199,1.15859133 56.4368625,2.38288997 C58.419436,3.70695306 59.288271,7.02538611 58.3741174,9.77971321 Z" id="Shape"></path>
        </g>
    </g>
</svg>