<?xml version="1.0" encoding="UTF-8"?>
<svg width="58px" height="60px" viewBox="0 0 58 60" version="1.1" xmlns="http://www.w3.org/2000/svg" xmlns:xlink="http://www.w3.org/1999/xlink">
    <!-- Generator: Sketch 52.6 (67491) - http://www.bohemiancoding.com/sketch -->
    <title>Group 7</title>
    <desc>Created with Sketch.</desc>
    <g id="Page-1" stroke="none" stroke-width="1" fill="none" fill-rule="evenodd">
        <g id="Group-7" transform="translate(-2.000000, 1.000000)" stroke="#FFFFFF" stroke-width="2">
            <g id="Group-46" transform="translate(0.500000, 0.000000)">
                <g id="Group-44" transform="translate(14.500000, 0.000000)">
                    <polygon id="Polygon" points="16 0.26984127 29.8564065 8.5 29.8564065 24.9603175 16 33.1904762 2.14359354 24.9603175 2.14359354 8.5"></polygon>
                    <path d="M16.0679089,33.1204845 C16.0679089,33.1204845 16.0679089,27.6570426 16.0679089,16.7301587" id="Path-14"></path>
                    <polyline id="Path-16" points="2.38432282 8.62553984 16.0743789 16.773741 29.764435 8.62553984"></polyline>
                </g>
                <g id="Group-44" transform="translate(28.500000, 24.000000)">
                    <polygon id="Polygon" points="16 0.26984127 29.8564065 8.5 29.8564065 24.9603175 16 33.1904762 2.14359354 24.9603175 2.14359354 8.5"></polygon>
                    <path d="M16.0679089,33.1204845 C16.0679089,33.1204845 16.0679089,27.6570426 16.0679089,16.7301587" id="Path-14"></path>
                    <polyline id="Path-16" points="2.38432282 8.62553984 16.0743789 16.773741 29.764435 8.62553984"></polyline>
                </g>
                <g id="Group-44" transform="translate(0.500000, 24.000000)">
                    <polygon id="Polygon" points="16 0.26984127 29.8564065 8.5 29.8564065 24.9603175 16 33.1904762 2.14359354 24.9603175 2.14359354 8.5"></polygon>
                    <path d="M16.0679089,33.1204845 C16.0679089,33.1204845 16.0679089,27.6570426 16.0679089,16.7301587" id="Path-14"></path>
                    <polyline id="Path-16" points="2.38432282 8.62553984 16.0743789 16.773741 29.764435 8.62553984"></polyline>
                </g>
            </g>
        </g>
    </g>
</svg>