<?xml version="1.0" encoding="UTF-8"?>
<svg width="60px" height="60px" viewBox="0 0 60 60" version="1.1" xmlns="http://www.w3.org/2000/svg" xmlns:xlink="http://www.w3.org/1999/xlink">
    <!-- Generator: Sketch 52.6 (67491) - http://www.bohemiancoding.com/sketch -->
    <title>Group 15</title>
    <desc>Created with Sketch.</desc>
    <g id="Page-1" stroke="none" stroke-width="1" fill="none" fill-rule="evenodd">
        <g id="Group-15" fill="#FFFFFF">
            <g id="002-clock">
                <path d="M30,0 C13.458,0 0,13.458 0,30 C0,46.542 13.458,60 30,60 C46.542,60 60,46.542 60,30 C60,13.458 46.542,0 30,0 Z M30,58 C14.561,58 2,45.439 2,30 C2,14.561 14.561,2 30,2 C45.439,2 58,14.561 58,30 C58,45.439 45.439,58 30,58 Z" id="Shape" fill-rule="nonzero"></path>
                <path d="M31,26.142 L31,16 C31,15.447 30.552,15 30,15 C29.448,15 29,15.447 29,16 L29,26.142 C27.601,26.506 26.506,27.601 26.142,29 L19,29 C18.448,29 18,29.447 18,30 C18,30.553 18.448,31 19,31 L26.142,31 C26.589,32.72 28.142,34 30,34 C32.206,34 34,32.206 34,30 C34,28.141 32.72,26.589 31,26.142 Z M30,32 C28.897,32 28,31.103 28,30 C28,28.897 28.897,28 30,28 C31.103,28 32,28.897 32,30 C32,31.103 31.103,32 30,32 Z" id="Shape" fill-rule="nonzero"></path>
                <path d="M30,9 C30.552,9 31,8.553 31,8 L31,7 C31,6.447 30.552,6 30,6 C29.448,6 29,6.447 29,7 L29,8 C29,8.553 29.448,9 30,9 Z" id="Path"></path>
                <path d="M30,50 C29.448,50 29,50.447 29,51 L29,52 C29,52.553 29.448,53 30,53 C30.552,53 31,52.553 31,52 L31,51 C31,50.447 30.552,50 30,50 Z" id="Path"></path>
                <path d="M52,29 L51,29 C50.448,29 50,29.447 50,30 C50,30.553 50.448,31 51,31 L52,31 C52.552,31 53,30.553 53,30 C53,29.447 52.552,29 52,29 Z" id="Path"></path>
                <path d="M9,29 L8,29 C7.448,29 7,29.447 7,30 C7,30.553 7.448,31 8,31 L9,31 C9.552,31 10,30.553 10,30 C10,29.447 9.552,29 9,29 Z" id="Path"></path>
                <path d="M45.1083102,13.3245903 L44.3249307,14.1081506 C43.8916898,14.5414916 43.8916898,15.2419303 44.3249307,15.6752713 C44.5409972,15.8913877 44.8246537,16 45.1083102,16 C45.3919668,16 45.6756233,15.8913877 45.8916898,15.6752713 L46.6750693,14.891711 C47.1083102,14.45837 47.1083102,13.7579313 46.6750693,13.3245903 C46.2418283,12.8912493 45.5415512,12.8923576 45.1083102,13.3245903 Z" id="Path"></path>
                <path d="M14.1083102,44.3245903 L13.3249307,45.1081506 C12.8916898,45.5414916 12.8916898,46.2419303 13.3249307,46.6752713 C13.5409972,46.8913877 13.8246537,47 14.1083102,47 C14.3919668,47 14.6756233,46.8913877 14.8916898,46.6752713 L15.6750693,45.891711 C16.1083102,45.45837 16.1083102,44.7579313 15.6750693,44.3245903 C15.2418283,43.8912493 14.5404432,43.8923576 14.1083102,44.3245903 Z" id="Path"></path>
                <path d="M45.8916898,44.3249608 C45.4584488,43.8916797 44.7581717,43.8916797 44.3249307,44.3249608 C43.8916898,44.7582418 43.8916898,45.4585834 44.3249307,45.8918644 L45.1083102,46.6753163 C45.3243767,46.8914027 45.6080332,47 45.8916898,47 C46.1753463,47 46.4590028,46.8914027 46.6750693,46.6753163 C47.1083102,46.2420353 47.1083102,45.5416936 46.6750693,45.1084126 L45.8916898,44.3249608 Z" id="Path"></path>
                <path d="M14.8916898,13.3249608 C14.4584488,12.8916797 13.7581717,12.8916797 13.3249307,13.3249608 C12.8916898,13.7582418 12.8916898,14.4585834 13.3249307,14.8918644 L14.1083102,15.6753163 C14.3243767,15.8914027 14.6080332,16 14.8916898,16 C15.1753463,16 15.4590028,15.8914027 15.6750693,15.6753163 C16.1083102,15.2420353 16.1083102,14.5416936 15.6750693,14.1084126 L14.8916898,13.3249608 Z" id="Path"></path>
            </g>
        </g>
    </g>
</svg>