<?xml version="1.0" encoding="UTF-8"?>
<svg width="60px" height="59px" viewBox="0 0 60 59" version="1.1" xmlns="http://www.w3.org/2000/svg" xmlns:xlink="http://www.w3.org/1999/xlink">
    <!-- Generator: Sketch 52.6 (67491) - http://www.bohemiancoding.com/sketch -->
    <title>Group 11</title>
    <desc>Created with Sketch.</desc>
    <g id="Page-1" stroke="none" stroke-width="1" fill="none" fill-rule="evenodd">
        <g id="Group-11" fill="#FFFFFF">
            <g id="004-coding">
                <path d="M6.5,52 C2.91664286,52 0,54.748375 0,58.125 C0,58.608875 0.415071429,59 0.928571429,59 L12.0714286,59 C12.5849286,59 13,58.608875 13,58.125 C13,54.748375 10.0833571,52 6.5,52 Z M1.95092857,57.25 C2.3205,55.539375 3.75607143,54.195375 5.57142857,53.84625 L5.57142857,55.5 L7.42857143,55.5 L7.42857143,53.84625 C9.24392857,54.19625 10.6795,55.539375 11.0490714,57.25 L1.95092857,57.25 Z" id="Shape" fill-rule="nonzero"></path>
                <path d="M59.0166667,42.2833333 L57.2919,42.2833333 C57.2378167,42.14665 57.1817667,42.01095 57.1208,41.8742667 L58.3411167,40.65395 C58.7256,40.2694667 58.7256,39.648 58.3411167,39.2635167 L54.1698167,35.0922167 C53.9662667,34.8886667 53.6978167,34.8001667 53.4313333,34.81295 C54.9899167,33.9859667 56.0666667,32.3664167 56.0666667,30.4833333 L56.0666667,4.91666667 C56.0666667,2.20561667 53.86105,0 51.15,0 L5.91666667,0 C3.20561667,0 1,2.20561667 1,4.91666667 L1,30.4833333 C1,33.1943833 3.20561667,35.4 5.91666667,35.4 L18.7491667,35.4 L15.0341333,42.2833333 L14.7666667,42.2833333 L13.2916667,42.2833333 C11.3938333,42.2833333 9.85,43.8271667 9.85,45.725 C9.85,47.6228333 11.3938333,49.1666667 13.2916667,49.1666667 L34.4333333,49.1666667 C34.4333333,49.71045 34.8728833,50.15 35.4166667,50.15 L37.1414333,50.15 C37.1955167,50.2866833 37.2515667,50.4223833 37.3125333,50.5590667 L36.0922167,51.7793833 C35.7077333,52.1638667 35.7077333,52.7853333 36.0922167,53.1698167 L40.2635167,57.3411167 C40.648,57.7256 41.2694667,57.7256 41.65395,57.3411167 L42.8742667,56.1208 C43.01095,56.1817667 43.14665,56.2378167 43.2833333,56.2919 L43.2833333,58.0166667 C43.2833333,58.56045 43.7228833,59 44.2666667,59 L50.1666667,59 C50.71045,59 51.15,58.56045 51.15,58.0166667 L51.15,56.2919 C51.2866833,56.2378167 51.4223833,56.1817667 51.5590667,56.1208 L52.7793833,57.3411167 C53.1638667,57.7256 53.7853333,57.7256 54.1698167,57.3411167 L58.3411167,53.1698167 C58.7256,52.7853333 58.7256,52.1638667 58.3411167,51.7793833 L57.1208,50.5590667 C57.1817667,50.4223833 57.2378167,50.2866833 57.2919,50.15 L59.0166667,50.15 C59.56045,50.15 60,49.71045 60,49.1666667 L60,43.2666667 C60,42.7228833 59.56045,42.2833333 59.0166667,42.2833333 Z M2.96666667,4.91666667 C2.96666667,3.29023333 4.29023333,1.96666667 5.91666667,1.96666667 L51.15,1.96666667 C52.7764333,1.96666667 54.1,3.29023333 54.1,4.91666667 L54.1,25.5666667 L2.96666667,25.5666667 L2.96666667,4.91666667 Z M5.91666667,33.4333333 C4.29023333,33.4333333 2.96666667,32.1097667 2.96666667,30.4833333 L2.96666667,27.5333333 L54.1,27.5333333 L54.1,30.4833333 C54.1,32.1097667 52.7764333,33.4333333 51.15,33.4333333 L50.1666667,33.4333333 L44.2666667,33.4333333 L36.6694333,33.4333333 L20.3972333,33.4333333 L5.91666667,33.4333333 Z M52.7666,35.105 L51.5590667,36.3125333 C51.4223833,36.2515667 51.2866833,36.1955167 51.15,36.1414333 L51.15,35.4 C51.71935,35.4 52.2572333,35.2839667 52.7666,35.105 Z M43.2833333,35.4 L43.2833333,36.1414333 C43.14665,36.1955167 43.01095,36.2515667 42.8742667,36.3125333 L41.9617333,35.4 L43.2833333,35.4 Z M39.95475,35.4 L39.1071167,36.2476333 L38.5299,35.4 L39.95475,35.4 Z M34.4333333,47.2 L13.2916667,47.2 C12.47845,47.2 11.8166667,46.5382167 11.8166667,45.725 C11.8166667,44.9117833 12.47845,44.25 13.2916667,44.25 L14.7666667,44.25 L15.6202,44.25 L34.4333333,44.25 L34.4333333,47.2 Z M17.2687583,42.28235 L20.9833,35.4 L36.1502333,35.4 L37.6921,37.66265 L36.0922167,39.2625333 C35.7077333,39.6470167 35.7077333,40.2684833 36.0922167,40.6529667 L37.3125333,41.8732833 C37.2515667,42.0099667 37.1955167,42.1456667 37.1414333,42.28235 L35.4166667,42.28235 L17.2687583,42.28235 Z M58.0333333,48.1833333 L56.59865,48.1833333 C56.1689333,48.1833333 55.79035,48.4616167 55.66055,48.8706833 C55.5110833,49.3456333 55.3095,49.8294333 55.0607167,50.3053667 C54.8620833,50.6869 54.9338667,51.1520167 55.2377167,51.4558667 L56.25645,52.4746 L53.4755833,55.2554667 L52.45685,54.2367333 C52.1520167,53.9328833 51.6878833,53.8620833 51.30635,54.0597333 C50.8304167,54.3085167 50.3466167,54.5101 49.8716667,54.6595667 C49.4616167,54.79035 49.1833333,55.1689333 49.1833333,55.59865 L49.1833333,57.0333333 L45.25,57.0333333 L45.25,55.59865 C45.25,55.1689333 44.9717167,54.79035 44.56265,54.66055 C44.0877,54.5110833 43.6039,54.3095 43.1279667,54.0607167 C42.7464333,53.8630667 42.2813167,53.9338667 41.9774667,54.2377167 L40.9587333,55.25645 L38.1778667,52.4755833 L39.1966,51.45685 C39.50045,51.153 39.5722333,50.6878833 39.3736,50.30635 C39.1248167,49.8304167 38.9232333,49.3466167 38.7737667,48.8716667 C38.6429833,48.4616167 38.2644,48.1833333 37.8346833,48.1833333 L36.4,48.1833333 L36.4,44.25 L37.8346833,44.25 C38.2644,44.25 38.6429833,43.9717167 38.7727833,43.56265 C38.92225,43.0877 39.1238333,42.6039 39.3726167,42.1279667 C39.57125,41.7464333 39.4994667,41.2813167 39.1956167,40.9774667 L38.1768833,39.9587333 L40.95775,37.1778667 L41.9764833,38.1966 C42.2803333,38.5014333 42.74545,38.5722333 43.1269833,38.3736 C43.6029167,38.1248167 44.0867167,37.9232333 44.5616667,37.7737667 C44.9717167,37.6429833 45.25,37.2644 45.25,36.8346833 L45.25,35.4 L49.1833333,35.4 L49.1833333,36.8346833 C49.1833333,37.2644 49.4616167,37.6429833 49.8706833,37.7727833 C50.3456333,37.92225 50.8294333,38.1238333 51.3053667,38.3726167 C51.6869,38.57125 52.1510333,38.50045 52.4558667,38.1956167 L53.4746,37.1768833 L56.2554667,39.95775 L55.2367333,40.9764833 C54.9328833,41.2803333 54.8611,41.74545 55.0597333,42.1269833 C55.3085167,42.6029167 55.5101,43.0867167 55.6595667,43.5616667 C55.79035,43.9717167 56.1689333,44.25 56.59865,44.25 L58.0333333,44.25 L58.0333333,48.1833333 Z" id="Shape" fill-rule="nonzero"></path>
                <path d="M47.2,41 C44.16675,41 41.7,43.46675 41.7,46.5 C41.7,49.53325 44.16675,52 47.2,52 C50.23325,52 52.7,49.53325 52.7,46.5 C52.7,43.46675 50.23325,41 47.2,41 Z M47.2,50.1666667 C45.1778333,50.1666667 43.5333333,48.5221667 43.5333333,46.5 C43.5333333,44.4778333 45.1778333,42.8333333 47.2,42.8333333 C49.2221667,42.8333333 50.8666667,44.4778333 50.8666667,46.5 C50.8666667,48.5221667 49.2221667,50.1666667 47.2,50.1666667 Z" id="Shape" fill-rule="nonzero"></path>
                <path d="M22,7.46775658 L20.7008527,6 L14.2694306,13.2661217 C13.9101898,13.6719865 13.9101898,14.3280135 14.2694306,14.7338783 L20.7008527,22 L22,20.5322434 L16.2181515,14 L22,7.46775658 Z" id="Path"></path>
                <path d="M42.7305694,13.2661217 L36.2991473,6 L35,7.46775658 L40.7818485,14 L35,20.5322434 L36.2991473,22 L42.7305694,14.7338783 C43.0898102,14.3280135 43.0898102,13.6719865 42.7305694,13.2661217 Z" id="Path"></path>
                <polygon id="Rectangle" transform="translate(28.106543, 12.786206) rotate(-63.434949) translate(-28.106543, -12.786206) " points="18.2183521 11.8099717 37.9568619 12.1831727 37.9947337 13.7624404 18.256224 13.3892394"></polygon>
                <rect id="Rectangle" x="40" y="21" width="2" height="2"></rect>
                <rect id="Rectangle" x="45" y="21" width="2" height="2"></rect>
                <rect id="Rectangle" x="50" y="21" width="2" height="2"></rect>
            </g>
        </g>
    </g>
</svg>