<?xml version="1.0" encoding="UTF-8"?>
<svg width="134px" height="35px" viewBox="0 0 134 35" version="1.1" xmlns="http://www.w3.org/2000/svg" xmlns:xlink="http://www.w3.org/1999/xlink">
    <!-- Generator: sketchtool 52.6 (67491) - http://www.bohemiancoding.com/sketch -->
    <title>9E3332BA-1FA0-4A34-AEFE-68D55C0E9961</title>
    <desc>Created with sketchtool.</desc>
    <g id="Page-1" stroke="none" stroke-width="1" fill="none" fill-rule="evenodd">
        <g id="Q-site-Copy-3" transform="translate(-320.000000, -29.000000)" fill="#0F6EF4">
            <g id="Group-53" transform="translate(320.000000, 24.000000)">
                <g id="Logo" transform="translate(0.000000, 5.000000)">
                    <path d="M51.636,26.588 L49.06,24.236 C47.3053246,25.636007 45.2426785,26.336 42.872,26.336 C39.9599854,26.336 37.570676,25.3466766 35.704,23.368 C33.837324,21.3893234 32.904,19.000014 32.904,16.2 C32.904,13.4186528 33.8466572,11.0340099 35.732,9.046 C37.6173428,7.05799006 40.0159854,6.064 42.928,6.064 C45.8400146,6.064 48.229324,7.05332344 50.096,9.032 C51.962676,11.0106766 52.896,13.399986 52.896,16.2 C52.896,18.7200126 52.1120078,20.913324 50.544,22.78 L53.148,24.936 L51.636,26.588 Z M42.928,24.292 C44.6453419,24.292 46.1479936,23.7973383 47.436,22.808 L43.796,19.7 L45.28,18.048 L48.892,21.324 C50.0306724,19.849326 50.6,18.141343 50.6,16.2 C50.6,13.941322 49.8673407,12.0280078 48.402,10.46 C46.9366593,8.89199216 45.0933444,8.108 42.872,8.108 C40.6506556,8.108 38.8166739,8.88732554 37.37,10.446 C35.9233261,12.0046745 35.2,13.9226553 35.2,16.2 C35.2,18.458678 35.9326593,20.3719922 37.398,21.94 C38.8633407,23.5080078 40.7066556,24.292 42.928,24.292 Z M61.528,26.308 C59.8106581,26.308 58.4573383,25.7806719 57.468,24.726 C56.4786617,23.6713281 55.984,22.2666754 55.984,20.512 L55.984,11.524 L58.14,11.524 L58.14,19.98 C58.14,21.3426735 58.4899965,22.4113295 59.19,23.186 C59.8900035,23.9606705 60.8746603,24.348 62.144,24.348 C63.3946729,24.348 64.4306626,23.9280042 65.252,23.088 C66.0733374,22.2479958 66.484,21.1560067 66.484,19.812 L66.484,11.524 L68.612,11.524 L68.612,26 L66.484,26 L66.484,23.48 C65.3079941,25.3653428 63.6560106,26.308 61.528,26.308 Z M80.156,26.308 C77.8786553,26.308 76.0306738,25.2813436 74.612,23.228 L74.612,26 L72.456,26 L72.456,5.56 L74.612,5.56 L74.612,14.436 C76.0680073,12.2893226 77.9159888,11.216 80.156,11.216 C82.0040092,11.216 83.6186598,11.9019931 85,13.274 C86.3813402,14.6460069 87.072,16.4799885 87.072,18.776 C87.072,21.034678 86.3813402,22.8546598 85,24.236 C83.6186598,25.6173402 82.0040092,26.308 80.156,26.308 Z M79.764,24.376 C81.2200073,24.376 82.4333285,23.8673384 83.404,22.85 C84.3746715,21.8326616 84.86,20.4653419 84.86,18.748 C84.86,17.0866584 84.3653383,15.7380052 83.376,14.702 C82.3866617,13.6659948 81.1826738,13.148 79.764,13.148 C78.363993,13.148 77.1413386,13.6799947 76.096,14.744 C75.0506614,15.8080053 74.528,17.1519919 74.528,18.776 C74.528,20.4000081 75.0506614,21.7393281 76.096,22.794 C77.1413386,23.8486719 78.363993,24.376 79.764,24.376 Z M91.336,19.644 C91.4853341,21.118674 92.0406619,22.2899957 93.002,23.158 C93.9633381,24.0260043 95.10666,24.46 96.432,24.46 C98.1680087,24.46 99.6893268,23.7786735 100.996,22.416 L102.34,23.62 C100.715992,25.4306757 98.7280118,26.336 96.376,26.336 C94.3413232,26.336 92.6286736,25.6313404 91.238,24.222 C89.8473264,22.8126596 89.152,20.9973444 89.152,18.776 C89.152,16.6666561 89.81466,14.8793407 91.14,13.414 C92.46534,11.9486593 94.1173234,11.216 96.096,11.216 C98.1680104,11.216 99.8106606,11.9439927 101.024,13.4 C102.237339,14.8560073 102.844,16.6853223 102.844,18.888 C102.844,19.1680014 102.834667,19.4199989 102.816,19.644 L91.336,19.644 Z M91.336,17.908 L100.66,17.908 C100.529333,16.507993 100.067337,15.3460046 99.274,14.422 C98.4806627,13.4979954 97.4026735,13.036 96.04,13.036 C94.8079938,13.036 93.7533377,13.4933288 92.876,14.408 C91.9986623,15.3226712 91.4853341,16.4893262 91.336,17.908 Z M106.912,19.644 C107.061334,21.118674 107.616662,22.2899957 108.578,23.158 C109.539338,24.0260043 110.68266,24.46 112.008,24.46 C113.744009,24.46 115.265327,23.7786735 116.572,22.416 L117.916,23.62 C116.291992,25.4306757 114.304012,26.336 111.952,26.336 C109.917323,26.336 108.204674,25.6313404 106.814,24.222 C105.423326,22.8126596 104.728,20.9973444 104.728,18.776 C104.728,16.6666561 105.39066,14.8793407 106.716,13.414 C108.04134,11.9486593 109.693323,11.216 111.672,11.216 C113.74401,11.216 115.386661,11.9439927 116.6,13.4 C117.813339,14.8560073 118.42,16.6853223 118.42,18.888 C118.42,19.1680014 118.410667,19.4199989 118.392,19.644 L106.912,19.644 Z M106.912,17.908 L116.236,17.908 C116.105333,16.507993 115.643337,15.3460046 114.85,14.422 C114.056663,13.4979954 112.978673,13.036 111.616,13.036 C110.383994,13.036 109.329338,13.4933288 108.452,14.408 C107.574662,15.3226712 107.061334,16.4893262 106.912,17.908 Z M121.2,26 L121.2,5.56 L123.356,5.56 L123.356,19.672 L131.168,11.524 L133.856,11.524 L127.78,17.74 L134.052,26 L131.476,26 L126.296,19.252 L123.356,22.22 L123.356,26 L121.2,26 Z" id="Qubeek"></path>
                    <g id="Group-2" fill-rule="nonzero">
                        <rect id="Rectangle" x="16" y="0" width="6" height="6"></rect>
                        <rect id="Rectangle-Copy-90" opacity="0.703473772" x="8" y="10" width="6" height="6"></rect>
                        <rect id="Rectangle-Copy-93" opacity="0.498186384" x="0" y="5" width="6" height="6"></rect>
                        <rect id="Rectangle-Copy-94" opacity="0.498186384" x="0" y="17" width="6" height="6"></rect>
                        <rect id="Rectangle-Copy-95" opacity="0.498186384" x="0" y="27" width="6" height="6"></rect>
                        <rect id="Rectangle-Copy-4" opacity="0.703473772" x="16" y="13" width="6" height="6"></rect>
                        <rect id="Rectangle-Copy-92" opacity="0.498186384" x="8" y="29" width="6" height="6"></rect>
                        <rect id="Rectangle-Copy-17" opacity="0.498186384" x="16" y="24" width="6" height="6"></rect>
                    </g>
                </g>
            </g>
        </g>
    </g>
</svg>