<?xml version="1.0" encoding="UTF-8"?>
<svg width="194px" height="51px" viewBox="0 0 194 51" version="1.1" xmlns="http://www.w3.org/2000/svg" xmlns:xlink="http://www.w3.org/1999/xlink">
    <!-- Generator: sketchtool 52.6 (67491) - http://www.bohemiancoding.com/sketch -->
    <title>7DC55E86-66BD-4A12-AE65-B5BB0165B8AC</title>
    <desc>Created with sketchtool.</desc>
    <g id="Page-1" stroke="none" stroke-width="1" fill="none" fill-rule="evenodd">
        <g id="Q-site" transform="translate(-240.000000, -5726.000000)" fill="#FFFFFF">
            <g id="Group-43" transform="translate(237.000000, 5726.000000)">
                <g id="Logo-Copy-5" transform="translate(3.000000, 0.000000)">
                    <path d="M75.0383201,39 L71.3200459,35.5326232 C68.7872957,37.5965483 65.8100117,38.6284953 62.3881046,38.6284953 C58.184817,38.6284953 54.7360175,37.1700101 52.0416024,34.252996 C49.3471873,31.3359819 48,27.8136025 48,23.6857523 C48,19.5854211 49.3606592,16.0699214 52.0820184,13.1391478 C54.8033777,10.2083742 58.2656491,8.74300932 62.4689366,8.74300932 C66.6722241,8.74300932 70.1210237,10.2014945 72.8154388,13.1185087 C75.5098538,16.0355228 76.8570412,19.5579021 76.8570412,23.6857523 C76.8570412,27.4008175 75.7254038,30.6342517 73.4620951,33.3861518 L77.2207854,36.5645806 L75.0383201,39 Z M62.4689366,35.6151798 C64.9477985,35.6151798 67.1167701,34.8859372 68.9759165,33.4274301 L63.7218334,28.8455393 L65.8638826,26.4101198 L71.0775497,31.2396804 C72.7211429,29.0656793 73.5429272,26.5477285 73.5429272,23.6857523 C73.5429272,20.3559532 72.4853851,17.5352978 70.3702693,15.2237017 C68.2551535,12.9121056 65.5944585,11.7563249 62.3881046,11.7563249 C59.1817506,11.7563249 56.5345275,12.905226 54.4463558,15.2030626 C52.3581842,17.5008992 51.314114,20.3284342 51.314114,23.6857523 C51.314114,27.0155515 52.371656,29.8362068 54.4867719,32.1478029 C56.6018877,34.459399 59.2625827,35.6151798 62.4689366,35.6151798 Z M89.316724,38.587217 C86.8378621,38.587217 84.8844405,37.8098169 83.4564005,36.2549933 C82.0283605,34.7001698 81.3143512,32.629396 81.3143512,30.0426099 L81.3143512,16.792277 L84.4263851,16.792277 L84.4263851,29.2583222 C84.4263851,31.2672093 84.9315803,32.8426485 85.941986,33.9846871 C86.9523917,35.1267256 88.3736743,35.6977364 90.2058765,35.6977364 C92.0111346,35.6977364 93.5065126,35.0785681 94.6920552,33.840213 C95.8775978,32.601858 96.4703603,30.9920206 96.4703603,29.0106525 L96.4703603,16.792277 L99.5419781,16.792277 L99.5419781,38.1331558 L96.4703603,38.1331558 L96.4703603,34.4181092 C94.7728788,37.1975283 92.3883572,38.587217 89.316724,38.587217 Z M116.204927,38.587217 C112.917741,38.587217 110.25031,37.0736947 108.202555,34.0466045 L108.202555,38.1331558 L105.090521,38.1331558 L105.090521,8 L108.202555,8 L108.202555,21.0852197 C110.304198,17.9205346 112.971629,16.3382157 116.204927,16.3382157 C118.872398,16.3382157 121.203032,17.3495238 123.1969,19.3721704 C125.190767,21.394817 126.187685,24.0985184 126.187685,27.4833555 C126.187685,30.8131547 125.190767,33.4962171 123.1969,35.5326232 C121.203032,37.5690293 118.872398,38.587217 116.204927,38.587217 Z M115.639103,35.7390146 C117.740747,35.7390146 119.49209,34.9891331 120.893186,33.4893475 C122.294282,31.989562 122.994819,29.9738254 122.994819,27.4420772 C122.994819,24.9928861 122.28081,23.0046681 120.85277,21.4773635 C119.42473,19.9500589 117.686859,19.1864181 115.639103,19.1864181 C113.618292,19.1864181 111.853476,19.9706979 110.344604,21.539281 C108.835732,23.107864 108.081307,25.0892024 108.081307,27.4833555 C108.081307,29.8775086 108.835732,31.8519674 110.344604,33.4067909 C111.853476,34.9616145 113.618292,35.7390146 115.639103,35.7390146 Z M132.342468,28.7629827 C132.558022,30.9369838 133.359598,32.6637752 134.747222,33.9434088 C136.134846,35.2230424 137.78515,35.8628495 139.698185,35.8628495 C142.203991,35.8628495 144.399906,34.8584211 146.285997,32.849534 L148.225966,34.6245007 C145.881825,37.2938438 143.012316,38.6284953 139.617353,38.6284953 C136.68044,38.6284953 134.208352,37.5896686 132.201012,35.511984 C130.193673,33.4342994 129.190019,30.7581167 129.190019,27.4833555 C129.190019,24.3737084 130.146522,21.7388035 132.059556,19.5785619 C133.972591,17.4183203 136.357113,16.3382157 139.213193,16.3382157 C142.203993,16.3382157 144.575043,17.4114407 146.326413,19.5579228 C148.077783,21.7044049 148.953454,24.4012266 148.953454,27.6484687 C148.953454,28.0612537 148.939982,28.4327547 148.913038,28.7629827 L132.342468,28.7629827 Z M132.342468,26.2037284 L145.801004,26.2037284 C145.612395,24.1398033 144.945538,22.4267711 143.800411,21.0645806 C142.655285,19.70239 141.099284,19.0213049 139.132361,19.0213049 C137.354047,19.0213049 135.831725,19.6955103 134.56535,21.0439414 C133.298975,22.3923725 132.558022,24.1122843 132.342468,26.2037284 Z M154.825325,28.7629827 C155.040878,30.9369838 155.842455,32.6637752 157.230079,33.9434088 C158.617702,35.2230424 160.268007,35.8628495 162.181042,35.8628495 C164.686848,35.8628495 166.882763,34.8584211 168.768854,32.849534 L170.708823,34.6245007 C168.364682,37.2938438 165.495173,38.6284953 162.10021,38.6284953 C159.163297,38.6284953 156.691208,37.5896686 154.683869,35.511984 C152.67653,33.4342994 151.672875,30.7581167 151.672875,27.4833555 C151.672875,24.3737084 152.629378,21.7388035 154.542413,19.5785619 C156.455448,17.4183203 158.839969,16.3382157 161.696049,16.3382157 C164.68685,16.3382157 167.0579,17.4114407 168.80927,19.5579228 C170.560639,21.7044049 171.436311,24.4012266 171.436311,27.6484687 C171.436311,28.0612537 171.422839,28.4327547 171.395895,28.7629827 L154.825325,28.7629827 Z M154.825325,26.2037284 L168.283861,26.2037284 C168.095252,24.1398033 167.428394,22.4267711 166.283268,21.0645806 C165.138142,19.70239 163.58214,19.0213049 161.615217,19.0213049 C159.836903,19.0213049 158.314582,19.6955103 157.048207,21.0439414 C155.781832,22.3923725 155.040878,24.1122843 154.825325,26.2037284 Z M175.449045,38.1331558 L175.449045,8 L178.561079,8 L178.561079,28.804261 L189.83715,16.792277 L193.717088,16.792277 L184.946811,25.9560586 L194,38.1331558 L190.281726,38.1331558 L182.804761,28.1850866 L178.561079,32.5605859 L178.561079,38.1331558 L175.449045,38.1331558 Z" id="Qubeek"></path>
                    <g id="Group-2" fill-rule="nonzero">
                        <rect id="Rectangle" x="22.5454545" y="0" width="8.45454545" height="8.74285714"></rect>
                        <rect id="Rectangle-Copy-90" opacity="0.703473772" x="11.2727273" y="14.5714286" width="8.45454545" height="8.74285714"></rect>
                        <rect id="Rectangle-Copy-93" opacity="0.498186384" x="0" y="7.28571429" width="8.45454545" height="8.74285714"></rect>
                        <rect id="Rectangle-Copy-94" opacity="0.498186384" x="0" y="24.7714286" width="8.45454545" height="8.74285714"></rect>
                        <rect id="Rectangle-Copy-95" opacity="0.498186384" x="0" y="39.3428571" width="8.45454545" height="8.74285714"></rect>
                        <rect id="Rectangle-Copy-4" opacity="0.703473772" x="22.5454545" y="18.9428571" width="8.45454545" height="8.74285714"></rect>
                        <rect id="Rectangle-Copy-92" opacity="0.498186384" x="11.2727273" y="42.2571429" width="8.45454545" height="8.74285714"></rect>
                        <rect id="Rectangle-Copy-17" opacity="0.498186384" x="22.5454545" y="34.9714286" width="8.45454545" height="8.74285714"></rect>
                    </g>
                </g>
            </g>
        </g>
    </g>
</svg>