<svg width="158" height="107" viewBox="0 0 158 107" fill="none" xmlns="http://www.w3.org/2000/svg">
<g id="Group 11 Copy">
<g id="Group 3 Copy">
<g id="Rectangle" filter="url(#filter0_d)">
<rect x="3" y="3" width="146" height="95" rx="4" fill="#65D589"/>
<rect x="3.5" y="3.5" width="145" height="94" rx="3.5" stroke="#DCFFE7"/>
</g>
<rect id="Rectangle_2" x="27" y="8" width="116" height="5" rx="2.5" fill="#ADFAC6"/>
<rect id="Rectangle_3" x="16" y="10" width="6" height="1" fill="#ADFAC6"/>
<rect id="Rectangle Copy 10" x="9" y="10" width="6" height="1" fill="#ADFAC6"/>
</g>
<g id="Rectangle Copy 33 + Rectangle Copy 34 + Rectangle Copy 35 + Rectangle Copy 36 Mask">
<mask id="mask0" mask-type="alpha" maskUnits="userSpaceOnUse" x="3" y="4" width="146" height="93">
<rect id="Mask" x="3" y="4" width="146" height="93" rx="4" fill="white"/>
</mask>
<g mask="url(#mask0)">
<rect id="Rectangle Copy 33" x="42" y="91.1262" width="19" height="17.6211" rx="2" fill="#62CB85"/>
<rect id="Rectangle Copy 34" x="69" y="91.1262" width="19" height="17.6211" rx="2" fill="#239448"/>
<rect id="Rectangle Copy 35" x="96" y="91.1262" width="19" height="17.6211" rx="2" fill="#35AD5C"/>
<rect id="Rectangle Copy 36" x="123" y="91.1262" width="19" height="17.6211" rx="2" fill="#44B268"/>
</g>
</g>
<rect id="Rectangle_4" x="9" y="20" width="133" height="18" rx="2" fill="white"/>
<rect id="Rectangle Copy 18" x="42" y="42" width="19" height="18" rx="2" fill="#37B661"/>
<rect id="Rectangle Copy 29" x="42" y="67" width="19" height="18" rx="2" fill="#3CB865"/>
<rect id="Rectangle Copy 19" x="69" y="42" width="19" height="18" rx="2" fill="#27934A"/>
<rect id="Rectangle Copy 30" x="69" y="67" width="19" height="18" rx="2" fill="#40B667"/>
<rect id="Rectangle Copy 20" x="96" y="42" width="19" height="18" rx="2" fill="#2BA353"/>
<rect id="Rectangle Copy 31" x="96" y="67" width="19" height="18" rx="2" fill="#0C7930"/>
<rect id="Rectangle Copy 28" x="123" y="42" width="19" height="18" rx="2" fill="#40B867"/>
<rect id="Rectangle Copy 32" x="123" y="67" width="19" height="18" rx="2" fill="#44BE6C"/>
<rect id="Rectangle Copy 21" x="9" y="42" width="27" height="4" rx="2" fill="#0B722D"/>
<rect id="Rectangle Copy 25" x="9" y="73" width="27" height="4" rx="2" fill="#0B722D"/>
<rect id="Rectangle Copy 23" x="9" y="58" width="27" height="4" rx="2" fill="#0B722D"/>
<rect id="Rectangle Copy 26" x="9" y="89" width="27" height="4" rx="2" fill="#0B722D"/>
<rect id="Rectangle Copy 22" x="9" y="50" width="27" height="4" rx="2" fill="#0B722D"/>
<rect id="Rectangle Copy 27" x="9" y="81" width="27" height="4" rx="2" fill="#0B722D"/>
<rect id="Rectangle Copy 24" x="9" y="65" width="27" height="4" rx="2" fill="#0B722D"/>
</g>
<defs>
<filter id="filter0_d" x="0" y="0" width="158" height="107" filterUnits="userSpaceOnUse" color-interpolation-filters="sRGB">
<feFlood flood-opacity="0" result="BackgroundImageFix"/>
<feColorMatrix in="SourceAlpha" type="matrix" values="0 0 0 0 0 0 0 0 0 0 0 0 0 0 0 0 0 0 127 0"/>
<feOffset dx="3" dy="3"/>
<feGaussianBlur stdDeviation="3"/>
<feColorMatrix type="matrix" values="0 0 0 0 0 0 0 0 0 0 0 0 0 0 0 0 0 0 0.248613 0"/>
<feBlend mode="normal" in2="BackgroundImageFix" result="effect1_dropShadow"/>
<feBlend mode="normal" in="SourceGraphic" in2="effect1_dropShadow" result="shape"/>
</filter>
</defs>
</svg>
