<svg width="158" height="107" viewBox="0 0 158 107" fill="none" xmlns="http://www.w3.org/2000/svg">
<g id="Group 5 Copy">
<g id="Group 3">
<g id="Rectangle" filter="url(#filter0_d)">
<rect x="3" y="3" width="146" height="95" rx="4" fill="#0F6EF4"/>
<rect x="3.5" y="3.5" width="145" height="94" rx="3.5" stroke="#CAE0FF"/>
</g>
<g id="Rectangle Copy 16 + Rectangle Copy 14 Mask">
<mask id="mask0" mask-type="alpha" maskUnits="userSpaceOnUse" x="3" y="2" width="146" height="95">
<rect id="Mask" x="3" y="2" width="146" height="95" rx="4" fill="white"/>
</mask>
<g mask="url(#mask0)">
<rect id="Rectangle Copy 16" x="9" y="81" width="87" height="26" rx="2" fill="#2956DD"/>
<rect id="Rectangle Copy 14" x="100" y="87" width="43" height="21" rx="2" fill="#105CC8"/>
</g>
</g>
<rect id="Rectangle_2" x="27" y="8" width="116" height="5" rx="2.5" fill="#C0DAFF"/>
<rect id="Rectangle_3" x="16" y="10" width="6" height="1" fill="#C0DAFF"/>
<rect id="Rectangle Copy 10" x="9" y="10" width="6" height="1" fill="#C0DAFF"/>
</g>
<g id="Group 4">
<rect id="Rectangle_4" x="9" y="20" width="87" height="47" rx="2" fill="white"/>
<path id="Path 2" fill-rule="evenodd" clip-rule="evenodd" d="M61 43.5L47 36V51L61 43.5Z" fill="#0F6EF4"/>
</g>
<rect id="Rectangle_5" x="100" y="20" width="43" height="21" rx="2" fill="#1461BF"/>
<rect id="Rectangle Copy 12" x="100" y="54" width="43" height="21" rx="2" fill="#0158D2"/>
<path id="Oval" fill-rule="evenodd" clip-rule="evenodd" d="M13.5 78C15.9853 78 18 75.9853 18 73.5C18 71.0147 15.9853 69 13.5 69C11.0147 69 9 71.0147 9 73.5C9 75.9853 11.0147 78 13.5 78Z" fill="#031835"/>
<rect id="Rectangle Copy 11" x="100" y="44" width="43" height="4" rx="2" fill="#044DB4"/>
<rect id="Rectangle Copy 15" x="22" y="71" width="64" height="4" rx="2" fill="#032556"/>
<rect id="Rectangle Copy 13" x="100" y="78" width="43" height="4" rx="2" fill="#024BB2"/>
</g>
<defs>
<filter id="filter0_d" x="0" y="0" width="158" height="107" filterUnits="userSpaceOnUse" color-interpolation-filters="sRGB">
<feFlood flood-opacity="0" result="BackgroundImageFix"/>
<feColorMatrix in="SourceAlpha" type="matrix" values="0 0 0 0 0 0 0 0 0 0 0 0 0 0 0 0 0 0 127 0"/>
<feOffset dx="3" dy="3"/>
<feGaussianBlur stdDeviation="3"/>
<feColorMatrix type="matrix" values="0 0 0 0 0 0 0 0 0 0 0 0 0 0 0 0 0 0 0.248613 0"/>
<feBlend mode="normal" in2="BackgroundImageFix" result="effect1_dropShadow"/>
<feBlend mode="normal" in="SourceGraphic" in2="effect1_dropShadow" result="shape"/>
</filter>
</defs>
</svg>
